<?xml version="1.0" encoding="UTF-8" standalone="no"?><svg xmlns="http://www.w3.org/2000/svg" xmlns:xlink="http://www.w3.org/1999/xlink" fill="#fff2ec" height="236.5" preserveAspectRatio="xMidYMid meet" version="1" viewBox="0.0 0.0 432.4 236.5" width="432.4" zoomAndPan="magnify"><g id="change1_1"><path d="M394.7461,0h-4c0,8.16,3.1436,26.8635,29.6665,38.4238H306.5107v48.5215h-74.1387v48.5225h-74.1377v48.5215H84.0957v48.5215 H0v4h88.0957v-48.5215h74.1387v-48.5215h74.1377V90.9453h74.1387V42.4238h109.8975c-26.519,11.5613-29.6621,30.2632-29.6621,38.4219 h4c0-8.2627,3.6719-28.5557,37.6846-38.5029v-3.8398C398.418,28.5576,394.7461,8.2637,394.7461,0z M425.001,40.5823v-0.319 c0.1421,0.0522,0.2749,0.1076,0.418,0.1595C425.2759,40.4747,425.1431,40.5301,425.001,40.5823z"/></g></svg>