<?xml version="1.0" encoding="UTF-8" standalone="no"?><svg xmlns="http://www.w3.org/2000/svg" xmlns:xlink="http://www.w3.org/1999/xlink" fill="#fff2ec" height="412.1" preserveAspectRatio="xMidYMid meet" version="1" viewBox="-0.0 0.0 207.8 412.1" width="207.8" zoomAndPan="magnify"><g id="change1_1"><path d="M207.6374,94.4247c-0.412,6.7328-3.6175,13.2339-8.6776,17.6822c-2.5169,2.235-5.4739,3.9767-8.6568,5.0846 c-0.782,0.3207-1.608,0.4995-2.4232,0.7135c-0.8102,0.2413-1.6478,0.3444-2.4807,0.4725c-0.8302,0.1578-1.6715,0.1917-2.5127,0.2288 l-1.2516,0.0549h-1.1663h-74.6436H31.1812c-0.8004-0.0162-1.5082,0.0338-2.2297,0.0704c-0.7223,0.0357-1.4471,0.049-2.1576,0.1913 c-0.7106,0.1264-1.4359,0.1812-2.1356,0.36l-2.0984,0.5387c-2.7544,0.8746-5.3636,2.1887-7.7029,3.8839 c-4.7264,3.3538-8.166,8.3901-9.7979,13.9175l-0.5341,2.0993l-0.3259,2.1428c-0.1202,0.713-0.0922,1.4423-0.149,2.1624 c-0.0149,0.3664-0.0463,0.7104-0.0492,1.0952c0.0054,0.3806-0.0129,0.7973,0.0159,1.1422c0.001,2.883,0.5984,5.7413,1.6162,8.4211 c2.0472,5.3668,6.0551,9.9651,11.1059,12.7263c2.5304,1.3666,5.299,2.2761,8.1417,2.6818l1.0656,0.1614l1.0778,0.052 c0.7211,0.0338,1.4155,0.0892,2.2184,0.0724h4.6652h18.6609h37.3218h37.3218h9.3304c1.5105-0.0353,3.2304,0.0942,4.8646,0.1751 c1.6335,0.2614,3.2863,0.4297,4.8761,0.9099c1.6224,0.35,3.156,0.993,4.7077,1.5646c1.4926,0.7153,3.0054,1.3951,4.3892,2.3105 c2.8039,1.7438,5.4049,3.8571,7.5468,6.3831c2.1421,2.5084,4.0391,5.2696,5.3405,8.3214c1.3011,3.0361,2.2758,6.2388,2.6322,9.5354 c0.3388,3.2784,0.3312,6.6348-0.3265,9.9066c-0.6654,3.2605-1.8362,6.4127-3.4702,9.309 c-3.2699,5.8055-8.5128,10.414-14.6033,13.0826c-3.0676,1.2935-6.3341,2.091-9.6442,2.3837l-2.4894,0.1243l-2.3359,0.0024h-4.6652 H96.0431H77.3822c-0.804-0.0159-1.5042,0.0314-2.2137,0.0682c-0.3556,0.0236-0.714,0.0215-1.0675,0.0641l-1.0563,0.1632 l-1.0559,0.1641l-1.0341,0.2682l-1.0349,0.2652l-1.0024,0.3694c-2.6733,0.9773-5.1517,2.4875-7.2541,4.4117 c-4.2294,3.8356-6.85,9.3629-7.1074,15.0646c-0.3237,5.7039,1.6948,11.4718,5.5134,15.7198 c3.7794,4.2799,9.2706,6.9747,14.9671,7.3135l4.6769,0.2307l1.2215,0.0663l1.2105,0.1827l2.4203,0.3704 c0.812,0.0973,1.5879,0.3741,2.3833,0.5541c0.7888,0.2094,1.5854,0.3937,2.3669,0.6265l2.3006,0.8401 c0.7662,0.2817,1.5417,0.5415,2.265,0.9243c5.9451,2.6958,11.2676,6.7439,15.434,11.7703 c4.1091,5.0715,7.0582,11.0778,8.5222,17.4424c0.2344,0.7844,0.3337,1.5959,0.4587,2.4025l0.3677,2.4208 c0.1295,1.6179,0.1971,3.2709,0.2569,4.8713v9.3304v18.661v50.6721c10.1169-23.403,26.0344-26.2053,33.043-26.2053v4.24 c-7.1035,0-24.5508,3.3549-33.123,34.4259h-3.8398c-8.5723-31.072-26.0195-34.427-33.123-34.427v-4.24 c7.0094,0,22.9268,2.8024,33.043,26.2058v-50.6715v-18.661v-9.3304c-0.0607-1.5049-0.1208-2.9642-0.2339-4.4429l-0.3362-2.1912 c-0.1122-0.7302-0.1967-1.4663-0.4139-2.1748c-1.327-5.7577-3.9935-11.1915-7.7128-15.7898 c-3.7774-4.5522-8.6013-8.2172-13.9797-10.6591c-0.6527-0.3511-1.3566-0.5809-2.05-0.8352l-2.0804-0.7635 c-0.7075-0.2095-1.4293-0.3726-2.1427-0.5629c-0.7202-0.161-1.4197-0.421-2.1561-0.5039l-2.1915-0.3335l-1.0955-0.1693 l-1.1077-0.0562l-4.642-0.2285c-6.7332-0.3994-13.2403-3.5935-17.6973-8.6458c-4.5097-5.0104-6.905-11.8599-6.5202-18.5833 c0.3036-6.7368,3.4103-13.2893,8.4028-17.8122c2.4828-2.2726,5.4123-4.0585,8.5771-5.2157l1.1881-0.4324l1.2233-0.3189l1.225-0.3127 l1.2477-0.199l1.2496-0.1887c0.4177-0.0496,0.8397-0.0527,1.2595-0.08c0.8434-0.0451,1.696-0.091,2.4478-0.0751h18.6609h37.3218 h4.6652l2.3292-0.0024l2.1699-0.111c2.8825-0.2581,5.7194-0.9495,8.3884-2.0709c5.2912-2.3248,9.8688-6.3362,12.7108-11.3905 c1.4198-2.5212,2.4365-5.2596,3.0189-8.094c0.5735-2.842,0.5728-5.7695,0.2805-8.6657c-0.3094-2.9004-1.1755-5.7087-2.3128-8.3786 c-1.1375-2.6846-2.8168-5.1072-4.6972-7.3169c-1.8802-2.2272-4.1755-4.0812-6.6396-5.6152 c-1.2141-0.8105-2.5483-1.3976-3.8564-2.0343c-1.3667-0.4927-2.7092-1.0707-4.137-1.3705c-1.3946-0.4299-2.8506-0.5632-4.285-0.8041 c-1.4717-0.0591-2.856-0.1887-4.4572-0.1543h-9.3304H89.8904H52.5686H33.9076h-4.6652c-0.753,0.0169-1.6108-0.0378-2.4429-0.0787 l-1.2518-0.0656l-1.2411-0.183c-3.3095-0.4728-6.5387-1.5356-9.4833-3.1288c-5.8804-3.2128-10.5389-8.5515-12.9258-14.8077 c-1.188-3.1221-1.8746-6.4586-1.8803-9.8038c-0.0294-0.4312-0.0107-0.793-0.0162-1.1896c0.0027-0.3926,0.0349-0.8245,0.0516-1.2349 c0.0607-0.8291,0.0408-1.6657,0.1738-2.4881l0.3779-2.4691l0.6133-2.4219c1.8787-6.3825,5.8506-12.1698,11.2857-16.0374 c2.6935-1.9532,5.7028-3.4684,8.8814-4.4732l2.4199-0.623c0.8076-0.2024,1.6412-0.2762,2.4612-0.4172 c0.8203-0.157,1.6528-0.1801,2.4838-0.2213c0.8316-0.0427,1.6764-0.0918,2.4318-0.0756h74.6437h74.6436h1.1663l1.0782-0.0511 c0.713-0.0314,1.427-0.0538,2.1277-0.1933c0.7038-0.1099,1.4142-0.1887,2.0969-0.3992c0.6879-0.1832,1.3887-0.325,2.0472-0.6026 c2.6885-0.9356,5.1898-2.4082,7.3209-4.3007c4.2866-3.772,6.991-9.2585,7.3404-14.9543c0.1047-1.368,0.0718-2.9863,0.0767-4.5308 v-2.3326c0.0134-0.7975-0.0634-1.4629-0.0869-2.2009c-0.1922-2.877-0.8527-5.7179-1.9704-8.3776 c-2.2843-5.3036-6.4125-9.7681-11.489-12.51c-2.54-1.3734-5.3297-2.2502-8.1749-2.6843l-1.0688-0.1651 c-0.3567-0.0521-0.72-0.0436-1.0796-0.0693c-0.7371-0.0242-1.4052-0.0989-2.1989-0.0881h-4.6652h-18.6609h-18.6609h-9.3304 c-3.1269-0.0176-6.1436,0.0732-9.5187-0.1696c-3.2715-0.3972-6.5283-1.088-9.5853-2.3571 c-0.7859-0.2587-1.5004-0.6855-2.2532-1.0224c-0.7471-0.3519-1.4918-0.7081-2.1833-1.1619 c-0.7023-0.4328-1.4185-0.8454-2.1067-1.2988l-1.9828-1.4813c-5.1696-4.0963-9.1578-9.6805-11.2784-15.94 c-1.0384-3.1249-1.7395-6.3933-1.8161-9.6936c-0.1182-1.6897-0.0597-3.1789-0.0744-4.7504v-4.6652V0h4v18.6609v4.6652 c0.0132,1.5379-0.0403,3.1617,0.0706,4.5764c0.0607,2.9255,0.6904,5.8097,1.6043,8.5722 c1.8715,5.5302,5.4022,10.4733,9.9772,14.0997l1.7534,1.3125c0.6097,0.3999,1.2451,0.7615,1.8649,1.1464 c0.6093,0.4058,1.2697,0.7169,1.9307,1.0267c0.6666,0.2947,1.2939,0.6827,1.9908,0.9054c2.7007,1.1251,5.5801,1.7241,8.4728,2.0848 c2.8338,0.2087,6.0414,0.14,9.1342,0.1511h9.3304h18.6609h18.6609h4.6652c0.762-0.0115,1.6451,0.0649,2.4617,0.0967 c0.4154,0.0294,0.8338,0.0257,1.2465,0.0839l1.2371,0.1869c3.2921,0.5011,6.5225,1.5241,9.4614,3.111 c5.8754,3.1679,10.6396,8.3234,13.2817,14.4641c1.2969,3.0771,2.0642,6.3698,2.2848,9.6929 c0.0312,0.8157,0.1094,1.7016,0.0953,2.4598v2.3326C207.7149,91.1946,207.7581,92.6883,207.6374,94.4247z"/></g></svg>