<?xml version="1.0" encoding="UTF-8" standalone="no"?><svg xmlns="http://www.w3.org/2000/svg" xmlns:xlink="http://www.w3.org/1999/xlink" fill="#000000" height="506" preserveAspectRatio="xMidYMid meet" version="1" viewBox="0.0 0.0 527.9 506.0" width="527.9" zoomAndPan="magnify"><g id="change1_1"><path d="M527.8784,191.6582L263.9387,0L0,191.6582l0.0001,0.0001H0V314.241h0.1308L0,314.3359l263.9399,191.6582 l263.9385-191.6582l-0.043-0.0312h0.043V191.7108h-0.0725L527.8784,191.6582z M263.9399,362.3066L113.4048,252.9969 l150.5339-109.3094l150.535,109.3097L263.9399,362.3066z M272.4392,128.8503V27.1823l226.5066,164.4758l-70.0057,50.8343 L272.4392,128.8503z M255.4392,27.1817v101.6679L98.9383,242.4922l-70.0057-50.834L255.4392,27.1817z M17,204.0026l67.4719,48.9943 L17,301.9914V204.0026z M98.9384,263.5016l156.5009,113.642v101.668L28.9326,314.3359L98.9384,263.5016z M272.4392,478.8125 V377.1447l156.501-113.6428l70.0056,50.834L272.4392,478.8125z M510.8785,301.9915l-67.4719-48.9943l67.4719-48.9945V301.9915z" fill="#dd622d"/></g></svg>