<?xml version="1.0" encoding="UTF-8" standalone="no"?><svg xmlns="http://www.w3.org/2000/svg" xmlns:xlink="http://www.w3.org/1999/xlink" fill="#000000" height="439.4" preserveAspectRatio="xMidYMid meet" version="1" viewBox="0.0 0.0 463.3 439.4" width="463.3" zoomAndPan="magnify"><g id="change1_1"><path d="M462.3899,159.957l0.9101-1.2393L346.7371,0H117.4888L1.2263,158.3081H0v122.0403h0.2296L0,280.6611 l116.5632,158.7178h229.2483l116.563-158.7178l-0.0305-0.0416h0.0459L462.3899,159.957L462.3899,159.957z M130.9253,317.4355 h202.375v104.9434h-202.375V317.4355z M338.1296,300.4355H126.0959l-59.763-81.3762l58.8375-80.1159h212.0337l59.7632,81.3761 L338.1296,300.4355z M333.3003,121.9433h-202.375V17h202.375V121.9433z M350.3003,128.0554V33.5721l91.9079,125.1456 l-34.6948,47.2419L350.3003,128.0554z M113.9253,33.5721v91.9631l-58.1385,79.164l-33.769-45.9814L113.9253,33.5721z M17,180.6055 l28.2407,38.4537L17,257.5131V180.6055z M55.7868,233.4194l58.1385,79.1638v94.4838l-92.833-126.4059L55.7868,233.4194z M350.3003,404.5466v-91.9629l57.2131-77.9042l33.7693,45.9816L350.3003,404.5466z M418.0594,220.3195l27.3304-37.2145v74.429 L418.0594,220.3195z" fill="#dd622d"/></g></svg>