<?xml version="1.0" encoding="UTF-8"?><svg xmlns="http://www.w3.org/2000/svg" xmlns:xlink="http://www.w3.org/1999/xlink" fill="none" height="18.0" preserveAspectRatio="xMidYMid meet" style="fill: none;" version="1.0" viewBox="5.0 3.0 14.0 18.0" width="14.0" zoomAndPan="magnify"><g id="change1_1"><path clip-rule="evenodd" d="M14 5H13.5V3H14C15.6569 3 17 4.34315 17 6V9.5C17 9.81476 17.1482 10.1111 17.4 10.3L18.6 11.2C18.8401 11.3801 18.9867 11.6586 18.9991 11.9585C19.0116 12.2584 18.8887 12.5481 18.6643 12.7475L17.3357 13.9281C17.1222 14.1179 17 14.39 17 14.6756V18C17 19.6569 15.6569 21 14 21H13.5V19H14C14.5523 19 15 18.5523 15 18V14.6756C15 13.8186 15.3665 13.0025 16.0072 12.4332L16.4208 12.0656L16.2 11.9C15.4446 11.3334 15 10.4443 15 9.5V6C15 5.44772 14.5523 5 14 5Z" fill="#000" fill-rule="evenodd"/></g><g id="change1_2"><path clip-rule="evenodd" d="M10 5H10.5V3H10C8.34315 3 7 4.34315 7 6V9.5C7 9.81476 6.85181 10.1111 6.6 10.3L5.4 11.2C5.15985 11.3801 5.01332 11.6586 5.00086 11.9585C4.9884 12.2584 5.11134 12.5481 5.33572 12.7475L6.66428 13.9281C6.87782 14.1179 7 14.39 7 14.6756V18C7 19.6569 8.34315 21 10 21H10.5V19H10C9.44772 19 9 18.5523 9 18V14.6756C9 13.8186 8.63345 13.0025 7.99283 12.4332L7.57921 12.0656L7.8 11.9C8.55542 11.3334 9 10.4443 9 9.5V6C9 5.44772 9.44772 5 10 5Z" fill="#000" fill-rule="evenodd"/></g></svg>