<?xml version="1.0" encoding="UTF-8" standalone="no"?><svg xmlns="http://www.w3.org/2000/svg" xmlns:xlink="http://www.w3.org/1999/xlink" fill="#fff2ec" height="190.5" preserveAspectRatio="xMidYMid meet" version="1" viewBox="0.0 0.0 419.6 190.5" width="419.6" zoomAndPan="magnify"><g id="change1_1"><path d="M388.8898,15.8453C383.6944,9.6548,382.582,3.5475,382.4787,0l-4.5849,0.1541c0.1169,3.5023,1.0863,9.2044,5.1419,15.1917 c4.0526,6.0159,11.1687,12.2939,23.5061,17.2219c-17.7361,0.1812-35.473,0.7504-53.1866,1.8036 c-26.0911,1.541-52.1447,4.1232-77.9902,8.2421c-25.8228,4.1616-51.4974,9.8412-76.3046,18.4878 c-12.3821,4.3501-24.5393,9.4892-36.0639,15.9251c-3.6753,2.0629-7.2894,4.2758-10.8124,6.6346 c-1.4755-1.4039-2.9686-2.7874-4.5417-4.0775c-2.4681-2.2164-5.1529-4.1528-7.7553-6.1947 c-2.7178-1.8774-5.3682-3.861-8.1872-5.5794c-5.5276-3.6165-11.3334-6.761-17.2095-9.734 C102.6675,52.2673,90.3668,47.4704,77.751,43.779C52.5433,36.2979,26.2805,32.5855,0,32.4915v4 c25.8816,0.0917,51.7957,3.7547,76.6114,11.1217c12.4207,3.6331,24.5114,8.3527,36.0989,14.0441 c5.756,2.9131,11.4392,5.9901,16.8288,9.5181c2.754,1.6768,5.3285,3.6085,7.9771,5.4349c2.5251,1.9849,5.14,3.8664,7.5261,6.0128 c1.3082,1.0715,2.5555,2.2067,3.7827,3.3627c-6.2216,4.4476-12.0687,9.4443-17.2067,15.22 c-4.4437,4.9855-8.2764,10.5846-11.1465,16.6965c-2.8027,6.1329-4.6247,12.7787-5.0396,19.5444 c-0.2287,3.4003-0.0603,6.7161,0.1011,10.0474c0.1646,1.6633,0.3018,3.3291,0.4924,4.9902l0.8318,4.9618 c1.3521,6.5719,3.7382,13.0503,7.5973,18.7462c0.2416,0.3547,0.4587,0.725,0.721,1.0663l0.8125,1.0077 c0.5545,0.6615,1.059,1.3629,1.6582,1.9886l1.8411,1.8419c0.2958,0.3179,0.6297,0.5978,0.9766,0.8647l1.0223,0.8191 c2.7557,2.1211,5.8811,3.912,9.3351,4.7985c6.8522,1.8883,14.559,0.5383,20.2986-3.5095c2.8982-1.9541,5.4927-4.3502,7.5526-7.1075 c1.1342-1.3108,1.9612-2.8151,2.9141-4.2404c0.4472-0.7289,0.8041-1.5033,1.2092-2.2535c0.3727-0.7643,0.8338-1.4935,1.1266-2.2896 c2.7577-6.2177,4.2592-12.8511,4.9639-19.4884c0.3852-3.3264,0.4677-6.651,0.4961-9.9894l-0.2278-5.0377 c-0.144-1.6732-0.4288-3.334-0.6393-5.0013c-1.0923-6.6349-3.1857-13.0816-6.0713-19.1249 c-2.8441-6.0778-6.6593-11.6215-10.8384-16.789c-1.9987-2.5627-4.2611-4.8826-6.4728-7.2466 c3.1968-2.1118,6.4747-4.1102,9.8148-5.9832c11.2591-6.2889,23.2197-11.3513,35.4384-15.643 c24.4842-8.5354,49.9568-14.1792,75.6122-18.3121c25.6806-4.0928,51.6093-6.6643,77.5933-8.1987 c17.6407-1.0488,35.3136-1.6162,52.9913-1.7968c-12.1977,5.1882-18.8128,11.9199-22.3604,18.1341 c-3.5432,6.2429-4.0419,11.9945-3.925,15.4973l4.3005-0.1448c-0.1035-3.553,0.5421-9.7125,5.2461-16.1561 c4.7034-6.4411,13.5117-13.1727,29.7819-17.4864v-3.8398C403.3204,28.3123,394.0851,22.0381,388.8898,15.8453z M152.1179,89.1317 c2.1791,2.3398,4.4277,4.6249,6.389,7.1453c4.006,4.9547,7.6468,10.2431,10.3344,15.9971 c2.7305,5.7234,4.6971,11.7912,5.7254,18.0247c0.1943,1.5668,0.4667,3.1262,0.6022,4.6984l0.2139,4.7344 c-0.0289,3.1783-0.106,6.382-0.474,9.5373c-0.668,6.3129-2.0971,12.5481-4.6331,18.2667c-0.2676,0.7397-0.6929,1.3943-1.0326,2.095 c-0.3702,0.6829-0.6937,1.3966-1.0997,2.0557c-0.8654,1.2784-1.608,2.656-2.6222,3.8124c-1.8386,2.4734-4.1216,4.5536-6.613,6.2382 c-4.9562,3.4862-11.298,4.5314-17.0263,2.9854c-2.8902-0.7313-5.5465-2.2612-7.9332-4.094l-0.8873-0.7087 c-0.3019-0.2285-0.5933-0.4705-0.8518-0.7537l-1.6172-1.6168c-0.5292-0.5492-0.9756-1.1823-1.4695-1.7676l-0.7256-0.8937 c-0.2347-0.304-0.4287-0.6415-0.6455-0.9602c-3.4674-5.1171-5.7071-11.1016-6.9761-17.2859l-0.7851-4.6851 c-0.1794-1.5769-0.3086-3.163-0.4673-4.7438c-0.1527-3.1754-0.3128-6.3905-0.1001-9.4996 c0.384-6.2678,2.0684-12.4075,4.6777-18.1288c2.6791-5.7001,6.2786-10.9784,10.5103-15.7248 c5.0536-5.6862,10.8929-10.6439,17.1554-15.0645C151.8839,88.907,152.0005,89.0198,152.1179,89.1317z"/></g></svg>